name rise49.25peak52.1432fall72.8391.mot
datacolumns 19
datarows 17
range 18.49492500000000 18.52160300000000
endheader
time	ground_force1_vx	ground_force1_vy	ground_force1_vz	ground_force1_px	ground_force1_py	ground_force1_pz	ground_force2_vx	ground_force2_vy	ground_force2_vz	ground_force2_px	ground_force2_py	ground_force2_pz	ground_torque1_x	ground_torque1_y	ground_torque1_z	ground_torque2_x	ground_torque2_y	ground_torque2_z	
18.49492500000000	-38.73594200000000	801.21377900000005	46.60152600000000	0.13275000000000	0.00000000000000	0.08414100000000	-8.18680800000000	26.37366100000000	2.86427900000000	0.33100500000000	0.00000000000000	-0.07182300000000	0.00000000000000	18.61446600000000	0.00000000000000	0.00000000000000	0.89243700000000	0.00000000000000	
18.49660500000000	-39.52330300000000	799.98494200000005	46.48323800000000	0.13175600000000	0.00000000000000	0.08410600000000	-9.63812300000000	32.47220900000000	3.44864200000000	0.33717600000000	0.00000000000000	-0.07144700000000	0.00000000000000	18.57301100000000	0.00000000000000	0.00000000000000	1.13194300000000	0.00000000000000	
18.49825700000000	-40.32532400000000	798.63432499999999	46.34399900000000	0.13077300000000	0.00000000000000	0.08406800000000	-11.02362500000000	38.82664400000000	4.03337400000000	0.34276800000000	0.00000000000000	-0.07111300000000	0.00000000000000	18.53087700000000	0.00000000000000	0.00000000000000	1.38708800000000	0.00000000000000	
18.49992900000000	-41.14189100000000	797.15989700000000	46.18348800000000	0.12980000000000	0.00000000000000	0.08402800000000	-12.29773000000000	45.31902500000000	4.60320000000000	0.34786600000000	0.00000000000000	-0.07081500000000	0.00000000000000	18.48812300000000	0.00000000000000	0.00000000000000	1.65236000000000	0.00000000000000	
18.50160500000000	-41.97283500000000	795.55967299999998	46.00141900000000	0.12883700000000	0.00000000000000	0.08398400000000	-13.42244800000000	51.84276400000000	5.14466200000000	0.35253700000000	0.00000000000000	-0.07054900000000	0.00000000000000	18.44480200000000	0.00000000000000	0.00000000000000	1.92231400000000	0.00000000000000	
18.50326100000000	-42.81793000000000	793.83171400000003	45.79754200000000	0.12788500000000	0.00000000000000	0.08393800000000	-14.36947300000000	58.30951700000000	5.64687600000000	0.35683600000000	0.00000000000000	-0.07031200000000	0.00000000000000	18.40096400000000	0.00000000000000	0.00000000000000	2.19192700000000	0.00000000000000	
18.50493000000000	-43.67689300000000	791.97412399999996	45.57164300000000	0.12694300000000	0.00000000000000	0.08388800000000	-15.12118900000000	64.65358900000000	6.10197600000000	0.36080700000000	0.00000000000000	-0.07010000000000	0.00000000000000	18.35665200000000	0.00000000000000	0.00000000000000	2.45686500000000	0.00000000000000	
18.50660400000000	-44.54937800000000	789.98504600000001	45.32354600000000	0.12601200000000	0.00000000000000	0.08383600000000	-15.67066400000000	70.83379600000001	6.50524200000000	0.36448700000000	0.00000000000000	-0.06991100000000	0.00000000000000	18.31190300000000	0.00000000000000	0.00000000000000	2.71366300000000	0.00000000000000	
18.50826100000000	-45.43497600000000	787.86266699999999	45.05311000000000	0.12509300000000	0.00000000000000	0.08378000000000	-16.02075700000000	76.83299200000000	6.85494300000000	0.36790800000000	0.00000000000000	-0.06974300000000	0.00000000000000	18.26675100000000	0.00000000000000	0.00000000000000	2.95978500000000	0.00000000000000	
18.50992800000000	-46.33321200000000	785.60521100000005	44.76023600000000	0.12418300000000	0.00000000000000	0.08372200000000	-16.18258400000000	82.65570500000000	7.15196900000000	0.37109500000000	0.00000000000000	-0.06959500000000	0.00000000000000	18.22122000000000	0.00000000000000	0.00000000000000	3.19361500000000	0.00000000000000	
18.51160400000000	-47.24354300000000	783.21094200000005	44.44486500000000	0.12328500000000	0.00000000000000	0.08366000000000	-16.17355700000000	88.32438600000000	7.39931000000000	0.37406900000000	0.00000000000000	-0.06946400000000	0.00000000000000	18.17532700000000	0.00000000000000	0.00000000000000	3.41435400000000	0.00000000000000	
18.51326500000000	-48.16535700000000	780.67816000000005	44.10697500000000	0.12239700000000	0.00000000000000	0.08359600000000	-16.01525100000000	93.87484300000000	7.60144900000000	0.37684900000000	0.00000000000000	-0.06935000000000	0.00000000000000	18.12908500000000	0.00000000000000	0.00000000000000	3.62188200000000	0.00000000000000	
18.51493200000000	-49.09797000000000	778.00520300000005	43.74658700000000	0.12152000000000	0.00000000000000	0.08352800000000	-15.73129600000000	99.35135800000000	7.76374100000000	0.37945200000000	0.00000000000000	-0.06925100000000	0.00000000000000	18.08249500000000	0.00000000000000	0.00000000000000	3.81657700000000	0.00000000000000	
18.51660900000000	-50.04062500000000	775.19044599999995	43.36376300000000	0.12065400000000	0.00000000000000	0.08345800000000	-15.34545200000000	104.80196300000000	7.89183200000000	0.38189100000000	0.00000000000000	-0.06916700000000	0.00000000000000	18.03555200000000	0.00000000000000	0.00000000000000	3.99913000000000	0.00000000000000	
18.51826600000000	-50.99248900000000	772.23230400000000	42.95860700000000	0.11979700000000	0.00000000000000	0.08338500000000	-14.88001200000000	110.27420800000000	7.99115300000000	0.38417900000000	0.00000000000000	-0.06909600000000	0.00000000000000	17.98824300000000	0.00000000000000	0.00000000000000	4.17036400000000	0.00000000000000	
18.51992600000000	-51.95265500000000	769.12922900000001	42.53126400000000	0.11895100000000	0.00000000000000	0.08330900000000	-14.35457900000000	115.81166899999999	8.06651300000000	0.38632500000000	0.00000000000000	-0.06903800000000	0.00000000000000	17.94054500000000	0.00000000000000	0.00000000000000	4.33108000000000	0.00000000000000	
18.52160300000000	-52.92013800000000	765.87971200000004	42.08192300000000	0.11811500000000	0.00000000000000	0.08323000000000	-13.78525600000000	121.45134800000000	8.12181900000000	0.38834000000000	0.00000000000000	-0.06899300000000	0.00000000000000	17.89242700000000	0.00000000000000	0.00000000000000	4.48192900000000	0.00000000000000	
